<svg xmlns="http://www.w3.org/2000/svg" viewBox="0 0 225.9 225.9" style="enable-background:new 0 0 225.9 225.9" xml:space="preserve"><style>.st0{fill:#cc7832}</style><path class="st0" d="M22.8 170.9c-2.8 4.8-5.5 8-11.3 8S0 174.1 0 168.1c0-4.4 2.8-8.3 5.1-12l86-147.4C93.9 4.1 96.6 0 102.4 0c6 0 11.3 4.8 11.3 10.8 0 3.2-.9 6.3-2.5 9L22.8 170.9zM113.4 170.9c-2.8 4.8-5.5 8-11.3 8s-11.5-4.8-11.5-10.8c0-4.4 2.8-8.3 5.1-12l86-147.4C184.5 4.1 187.2 0 193 0c6 0 11.3 4.8 11.3 10.8 0 3.2-.9 6.3-2.5 9l-88.4 151.1z"/></svg>